<?xml version="1.0" encoding="utf-8"?>
<!-- Generator: Adobe Illustrator 25.0.0, SVG Export Plug-In . SVG Version: 6.00 Build 0)  -->
<svg version="1.1" id="Capa_1" xmlns="http://www.w3.org/2000/svg" xmlns:xlink="http://www.w3.org/1999/xlink" x="0px" y="0px"
	 viewBox="0 0 512 512" style="enable-background:new 0 0 512 512;" xml:space="preserve">
<style type="text/css">
	.st0{fill:#FFFFFF;}
</style>
<g>
	<path class="st0" d="M242.4,199.3l-35.6,35.6c-2.9,2.9-2.9,7.7,0,10.6c1.5,1.5,3.4,2.2,5.3,2.2s3.8-0.7,5.3-2.2l35.6-35.6
		c6.1-6.1,14.2-9.5,22.8-9.5h72.9c8.6,0,16.7,3.4,22.8,9.5l24.2,24.2c1.4,1.4,3.3,2.2,5.3,2.2h103.5c4.1,0,7.5-3.4,7.5-7.5
		s-3.4-7.5-7.5-7.5H404.2l-22-22c-8.9-8.9-20.8-13.8-33.4-13.8h-72.9C263.2,185.5,251.4,190.4,242.4,199.3L242.4,199.3z"/>
	<path class="st0" d="M194.7,268.2c2.9-2.9,2.9-7.7,0-10.6s-7.7-2.9-10.6,0l-10.2,10.2c-14.1,14.1-14.1,37,0,51.1
		c7,7,16.3,10.6,25.6,10.6S218,326,225,318.9l24.9-24.9c9.6,7.4,21.3,11.3,33.7,11.3h18.2c14.9,0,28.8-5.8,39.3-16.3l6.9-6.9
		l30.8,30.8c1.5,1.5,3.4,2.2,5.3,2.2s3.8-0.7,5.3-2.2c2.9-2.9,2.9-7.7,0-10.6l-30.8-30.8l9.3-9.3c2.9-2.9,2.9-7.7,0-10.6
		c-2.9-2.9-7.7-2.9-10.6,0l-14.7,14.7l0,0l0,0l-12.2,12.2c-7.7,7.7-17.9,11.9-28.7,11.9h-18.2c-10.8,0-21-4.2-28.7-11.9
		c-2.9-2.9-7.7-2.9-10.6,0l-29.9,29.9c-8.2,8.2-21.6,8.2-29.9,0c-8.2-8.2-8.2-21.6,0-29.9L194.7,268.2z"/>
	<path class="st0" d="M504.5,365.7h-67.9c0.1-1,0.1-2,0.1-3c0-8.4-3.3-16.4-9.2-22.3L412.1,325c-2.9-2.9-7.7-2.9-10.6,0
		s-2.9,7.7,0,10.6l15.4,15.4c6.5,6.5,6.5,17,0,23.4c-6.5,6.5-17,6.5-23.4,0l-42.3-42.3c-2.9-2.9-7.7-2.9-10.6,0s-2.9,7.7,0,10.6
		l48.3,48.4c6.5,6.5,6.5,17,0,23.4c-6.5,6.5-17,6.5-23.4,0L304,353c-2.9-2.9-7.7-2.9-10.6,0s-2.9,7.7,0,10.6l45.4,45.4
		c6.4,6.5,6.4,17,0,23.4c-6.5,6.5-17,6.5-23.4,0l-45.2-45.2c-2.9-2.9-7.7-2.9-10.6,0s-2.9,7.7,0,10.6l38.6,38.6
		c3.1,3.1,4.9,7.3,4.9,11.7c0,4.4-1.7,8.6-4.9,11.7c-3.1,3.1-7.3,4.9-11.7,4.9c-4.4,0-8.6-1.7-11.7-4.9l-12.1-12.1
		c0.2-1.4,0.3-2.9,0.3-4.3c0-8.4-3.3-16.4-9.2-22.3c-6-6-13.9-9.2-22.3-9.2c-0.9,0-1.7,0-2.6,0.1c0.1-0.9,0.1-1.7,0.1-2.6
		c0-8.4-3.3-16.4-9.2-22.3c-6-6-13.9-9.2-22.3-9.2c-0.9,0-1.7,0-2.6,0.1c0.7-8.9-2.3-18.1-9.1-24.9c-6-6-13.9-9.2-22.3-9.2
		c-0.9,0-1.7,0-2.6,0.1c0.1-0.9,0.1-1.7,0.1-2.6c0-8.4-3.3-16.4-9.2-22.3c-12.3-12.3-32.3-12.3-44.7,0l-24.2,24.2
		c-9.7,9.7-11.8,24.2-6.1,36H7.5c-4.1,0-7.5,3.4-7.5,7.5s3.4,7.5,7.5,7.5h84.3c4.1,1.9,8.6,2.9,13.3,2.9c0.9,0,1.7,0,2.6-0.1
		c-0.1,0.9-0.1,1.7-0.1,2.6c0,8.4,3.3,16.4,9.2,22.3c6.2,6.2,14.2,9.2,22.3,9.2c0.9,0,1.7,0,2.6-0.1c-0.1,0.9-0.1,1.7-0.1,2.6
		c0,8.4,3.3,16.4,9.2,22.3c6,6,13.9,9.2,22.3,9.2c0.9,0,1.7,0,2.6-0.1c-0.7,8.9,2.3,18.1,9.1,24.9c6.1,6.1,14.2,9.2,22.3,9.2
		c7.9,0,15.8-2.9,21.9-8.8c3-2.9,3.1-7.6,0.2-10.6c-2.9-3-7.6-3.1-10.6-0.2c-6.5,6.2-16.9,6.1-23.2-0.2c-6.5-6.5-6.5-17,0-23.4
		l24.2-24.2c6.5-6.5,17-6.5,23.4,0c6.5,6.5,6.5,17,0,23.4l-1.8,1.8c-2.9,2.9-2.9,7.7,0,10.6s7.7,2.9,10.6,0l1.8-1.8c1-1,1.8-2,2.7-3
		l7.7,7.7c6,6,13.9,9.2,22.3,9.2s16.4-3.3,22.3-9.2c5.3-5.3,8.5-12.2,9.1-19.6c2.9,0.9,6,1.3,9.1,1.3c8.4,0,16.4-3.3,22.3-9.2
		c4.3-4.3,7.2-9.6,8.5-15.3c5.7,4.4,12.5,6.6,19.3,6.6c8.1,0,16.2-3.1,22.3-9.2c8.4-8.4,11-20.3,8-31c7.3-0.5,14.4-3.6,20-9.1
		c1.3-1.3,2.5-2.8,3.6-4.3h73.4c4.1,0,7.5-3.4,7.5-7.5C512,369.1,508.6,365.7,504.5,365.7L504.5,365.7z M93.4,377.4
		c-6.5-6.5-6.5-17,0-23.4l24.2-24.2c3.2-3.2,7.5-4.8,11.7-4.8s8.5,1.6,11.7,4.8c6.5,6.5,6.5,17,0,23.4l-24.2,24.2
		C110.4,383.8,99.9,383.8,93.4,377.4z M127.4,411.4c-3.1-3.1-4.9-7.3-4.9-11.7c0-4.4,1.7-8.6,4.9-11.7l24.2-24.2
		c3.2-3.2,7.5-4.8,11.7-4.8s8.5,1.6,11.7,4.8c6.5,6.5,6.5,17,0,23.4l0,0l-24.2,24.2C144.4,417.9,133.9,417.9,127.4,411.4
		L127.4,411.4z M184.9,445.5c-3.1,3.1-7.3,4.9-11.7,4.9s-8.6-1.7-11.7-4.9c-3.1-3.1-4.9-7.3-4.9-11.7c0-4.4,1.7-8.6,4.9-11.7
		l24.2-24.2l0,0c3.1-3.1,7.3-4.9,11.7-4.9s8.6,1.7,11.7,4.9c3.1,3.1,4.9,7.3,4.9,11.7c0,4.4-1.7,8.6-4.9,11.7L184.9,445.5z"/>
	<path class="st0" d="M8.2,239.7h96c1.8,0,3.5-0.6,4.9-1.8l19.1-16.3c5.6-4.8,12.8-7.4,20.2-7.4h57.4c4.1,0,7.5-3.4,7.5-7.5
		s-3.4-7.5-7.5-7.5h-57.4c-11,0-21.6,3.9-29.9,11l-17,14.5H8.2c-4.1,0-7.5,3.4-7.5,7.5S4.1,239.7,8.2,239.7L8.2,239.7z"/>
	<path class="st0" d="M223.2,123l-6.6,20.7c-1.3,4-0.1,8.4,3,11.2s7.6,3.5,11.4,1.8l23.5-10.4c1.1-0.5,2.4-0.5,3.4,0l23.5,10.4
		c1.4,0.6,2.8,0.9,4.3,0.9c2.6,0,5.1-0.9,7.1-2.7c3.1-2.8,4.3-7.2,3-11.2l0,0l-6.6-20.7l14.6-18c3.2-4,3.9-9.3,1.7-13.9
		c-2.2-4.6-6.7-7.5-11.8-7.5h-15.2l-11.2-18.1c-2.4-3.9-6.6-6.2-11.1-6.2c-4.6,0-8.7,2.3-11.1,6.2l-11.2,18.1h-15.2
		c-5.1,0-9.6,2.9-11.8,7.5s-1.6,9.9,1.7,13.9L223.2,123z M234.9,98.7c4.6,0,8.7-2.3,11.1-6.2l10.2-16.4l10.2,16.4
		c2.4,3.9,6.6,6.2,11.1,6.2h12.2L277,114.3c-2.8,3.5-3.7,8-2.3,12.3l4,12.4l-14.6-6.5c-5-2.2-10.6-2.2-15.6,0l-14.6,6.5l4-12.4
		c1.4-4.2,0.5-8.8-2.3-12.3l-12.8-15.7L234.9,98.7z"/>
	<path class="st0" d="M256.2,38.1c4.1,0,7.5-3.4,7.5-7.5V20.2c0-4.1-3.4-7.5-7.5-7.5s-7.5,3.4-7.5,7.5v10.4
		C248.7,34.8,252.1,38.1,256.2,38.1z"/>
	<path class="st0" d="M191.6,60.9c1.5,1.5,3.4,2.2,5.3,2.2s3.8-0.7,5.3-2.2c2.9-2.9,2.9-7.7,0-10.6l-7.4-7.4
		c-2.9-2.9-7.7-2.9-10.6,0c-2.9,2.9-2.9,7.7,0,10.6L191.6,60.9z"/>
	<path class="st0" d="M315.5,63.1c1.9,0,3.8-0.7,5.3-2.2l7.4-7.4c2.9-2.9,2.9-7.7,0-10.6s-7.7-2.9-10.6,0l-7.4,7.4
		c-2.9,2.9-2.9,7.7,0,10.6C311.6,62.4,313.6,63.1,315.5,63.1z"/>
</g>
</svg>
